<svg width="32" height="32" viewBox="0 0 32 32" fill="none" xmlns="http://www.w3.org/2000/svg">
<path d="M22.667 26.6667C22.667 25.9303 23.2639 25.3333 24.0003 25.3333C24.7367 25.3333 25.3337 25.9303 25.3337 26.6667C25.3337 27.403 24.7367 28 24.0003 28C23.2639 28 22.667 27.403 22.667 26.6667Z" stroke="white" stroke-width="2" stroke-linecap="round" stroke-linejoin="round"/>
<path d="M9.33301 26.6667C9.33301 25.9303 9.92996 25.3333 10.6663 25.3333C11.4027 25.3333 11.9997 25.9303 11.9997 26.6667C11.9997 27.403 11.4027 28 10.6663 28C9.92996 28 9.33301 27.403 9.33301 26.6667Z" stroke="white" stroke-width="2" stroke-linecap="round" stroke-linejoin="round"/>
<path d="M4 4H5.02362C5.66664 4 6.21806 4.45893 6.3348 5.09127L9.33333 21.3333" stroke="white" stroke-width="2" stroke-linecap="round" stroke-linejoin="round"/>
<path d="M7.33301 8H26.3236C27.1811 8 27.8156 8.79766 27.6228 9.63315L25.1613 20.2998C25.0216 20.9048 24.4829 21.3333 23.8621 21.3333H9.33301" stroke="white" stroke-width="2" stroke-linecap="round" stroke-linejoin="round"/>
</svg>
