<svg width="35" height="36" viewBox="0 0 35 36" fill="none" xmlns="http://www.w3.org/2000/svg">
<path d="M5.98874 4.58313C5.83318 4.89424 5.83318 5.43868 5.98874 5.74979C6.18318 6.25535 7.69985 6.33313 17.5776 6.25535L28.9721 6.13868V5.16646V4.19424L17.5776 4.07757C7.69985 3.99979 6.18318 4.07757 5.98874 4.58313Z" fill="black"/>
<path d="M3.65549 9.2511C3.49993 9.56221 3.49993 10.1067 3.65549 10.4178C3.84993 10.9233 5.63882 11.0011 17.5777 10.9233L31.3055 10.8067V9.83443V8.86221L17.5777 8.74554C5.63882 8.66776 3.84993 8.74554 3.65549 9.2511Z" fill="black"/>
<path d="M3.11103 14.1111C2.37214 14.85 2.33325 15.3944 2.33325 22.6667C2.33325 29.9389 2.37214 30.4833 3.11103 31.2222C3.84992 31.9611 4.39436 32 17.4999 32C30.6055 32 31.1499 31.9611 31.8888 31.2222C32.6277 30.4833 32.6666 29.9389 32.6666 22.6667C32.6666 15.3944 32.6277 14.85 31.8888 14.1111C31.1499 13.3722 30.6055 13.3333 17.4999 13.3333C4.39436 13.3333 3.84992 13.3722 3.11103 14.1111ZM28.311 16.6C28.5444 17.1056 29.0888 17.65 29.5166 17.8056C30.2944 18.0389 30.3333 18.35 30.3333 22.6667C30.3333 26.9833 30.2944 27.2944 29.5166 27.5278C29.0888 27.6833 28.5444 28.2278 28.311 28.7333L27.8833 29.6667H17.4999H7.11659L6.68881 28.7333C6.45547 28.2278 5.91103 27.6833 5.48325 27.5278C4.70547 27.2944 4.66659 26.9833 4.66659 22.6667C4.66659 18.35 4.70547 18.0389 5.48325 17.8056C5.91103 17.65 6.45547 17.1056 6.68881 16.6L7.11659 15.6667H17.4999H27.8833L28.311 16.6Z" fill="black"/>
</svg>
