<svg width="113" height="114" viewBox="0 0 113 114" fill="none" xmlns="http://www.w3.org/2000/svg">
<path d="M111.246 60.692C111.262 60.4186 111.213 60.1386 111.097 59.8521C110.981 59.5689 110.818 59.3269 110.608 59.126C110.401 58.9288 110.163 58.8201 109.892 58.8001L109.978 57.6121C110.317 57.6372 110.636 57.7431 110.936 57.9301C111.235 58.117 111.498 58.3578 111.721 58.6523C111.944 58.9504 112.114 59.2821 112.23 59.6477C112.347 60.0166 112.391 60.3923 112.363 60.7747C112.311 61.4915 112.087 62.086 111.692 62.5578C111.296 63.0331 110.795 63.3787 110.186 63.5945C109.578 63.8138 108.928 63.8978 108.238 63.8467L107.953 63.8256C107.266 63.7747 106.636 63.596 106.062 63.2892C105.492 62.9861 105.046 62.5704 104.723 62.0419C104.401 61.5169 104.265 60.896 104.318 60.1791C104.36 59.6056 104.521 59.1045 104.805 58.6758C105.091 58.2474 105.456 57.9208 105.897 57.6962C106.34 57.4714 106.819 57.3783 107.337 57.4166L107.25 58.6046C106.956 58.5828 106.675 58.646 106.404 58.7942C106.138 58.9461 105.916 59.151 105.737 59.4089C105.561 59.6705 105.461 59.9549 105.435 60.2618C105.404 60.7195 105.519 61.1192 105.776 61.461C106.034 61.8026 106.368 62.0728 106.779 62.2714C107.191 62.47 107.611 62.5853 108.041 62.6171L108.326 62.6381C108.765 62.6708 109.202 62.6189 109.634 62.4827C110.07 62.3502 110.437 62.1337 110.738 61.8334C111.04 61.5365 111.209 61.156 111.246 60.692ZM108.757 63.1643L107.64 63.0816L107.891 59.6405L109.008 59.7232L108.757 63.1643Z" fill="#3D3126"/>
<path d="M103.996 65.0225L111.619 66.7945L111.349 67.9753L108.034 67.2046L107.856 67.9851L110.539 71.5177L110.19 73.0386L107.228 69.0829L102.559 71.3066L102.907 69.7856L106.699 68.0116L106.942 66.9508L103.726 66.2032L103.996 65.0225Z" fill="#3D3126"/>
<path d="M100.838 75.2953C101.113 74.6101 101.511 74.0856 102.03 73.722C102.551 73.3583 103.146 73.1583 103.816 73.1221C104.487 73.0859 105.183 73.2156 105.908 73.5115C106.644 73.8125 107.238 74.2144 107.692 74.7175C108.147 75.225 108.435 75.7895 108.556 76.4112C108.678 77.0371 108.606 77.6801 108.34 78.34C108.134 78.8538 107.853 79.2784 107.498 79.6136C107.143 79.9489 106.743 80.1787 106.298 80.303C105.852 80.4275 105.389 80.4287 104.911 80.3069L105.363 79.184C105.727 79.2335 106.097 79.1627 106.47 78.9719C106.846 78.7854 107.133 78.4448 107.331 77.95C107.508 77.5122 107.549 77.0821 107.455 76.6596C107.363 76.2415 107.149 75.8569 106.814 75.5057C106.481 75.1589 106.041 74.8737 105.494 74.6499C104.933 74.421 104.41 74.3104 103.923 74.3183C103.435 74.3293 103.011 74.4512 102.65 74.6841C102.287 74.9201 102.017 75.2602 101.838 75.7043C101.721 75.9962 101.665 76.2817 101.67 76.5607C101.675 76.8398 101.738 77.1003 101.861 77.3425C101.983 77.5846 102.162 77.7946 102.399 77.9724L101.947 79.0954C101.545 78.857 101.222 78.5424 100.98 78.1516C100.74 77.7653 100.601 77.3264 100.564 76.8348C100.53 76.3477 100.621 75.8346 100.838 75.2953Z" fill="#3D3126"/>
<path d="M99.3166 79.2207L106.037 83.257L105.422 84.298L102.498 82.5427L102.093 83.2308L103.576 87.4211L102.784 88.7621L101.163 84.0826L96.0425 84.7611L96.8345 83.4201L100.983 82.8997L101.536 81.9645L98.701 80.2616L99.3166 79.2207Z" fill="#3D3126"/>
<path d="M92.6511 84.3049C92.7809 84.1466 92.9098 84.0164 93.0376 83.9142C93.1628 83.8098 93.2567 83.7437 93.3192 83.7158L93.9409 84.6339C93.6972 84.8127 93.5119 84.9958 93.3848 85.183C93.2578 85.3701 93.2084 85.5889 93.2367 85.839C93.2602 86.0896 93.3786 86.3992 93.5917 86.7679L93.9199 87.3346L101.823 90.1386L100.992 91.1517L94.8125 88.8248L94.7606 88.8881L98.1886 94.5706L97.3578 95.5837L92.5659 87.2453C92.3498 86.8695 92.2098 86.5109 92.1464 86.1693C92.0803 85.8255 92.0906 85.4987 92.1772 85.189C92.2617 84.8818 92.4196 84.5872 92.6511 84.3049Z" fill="#3D3126"/>
<path d="M88.6976 89.0508L95.7604 97.2297L94.8846 97.9986L94.0686 97.0535L93.961 97.1479C93.9837 97.3098 94.0052 97.5225 94.0257 97.7859C94.0458 98.0544 93.9991 98.3488 93.8854 98.671C93.7716 98.9984 93.5226 99.3299 93.1385 99.6676C92.6417 100.103 92.0957 100.363 91.5005 100.444C90.9052 100.527 90.3029 100.432 89.6935 100.158C89.0841 99.8855 88.5098 99.4363 87.9702 98.8114C87.4263 98.1814 87.061 97.5421 86.8744 96.894C86.6901 96.2479 86.677 95.633 86.8349 95.0496C86.9951 94.4688 87.3211 93.9626 87.8127 93.5311C88.1917 93.1985 88.5497 92.9953 88.8868 92.9218C89.2262 92.8508 89.5276 92.8428 89.791 92.8975C90.0566 92.9548 90.2695 93.0085 90.4297 93.0585L90.5065 92.9911L87.7911 89.8465L88.6976 89.0508ZM92.3009 95.0377C91.9131 94.5886 91.5055 94.2495 91.0784 94.0209C90.6535 93.7947 90.2321 93.6949 89.8139 93.7216C89.3979 93.7508 89.0081 93.925 88.6446 94.2441C88.2655 94.5768 88.0363 94.9551 87.9566 95.379C87.8767 95.8077 87.9209 96.2499 88.0895 96.7057C88.2576 97.1663 88.5244 97.6082 88.8901 98.0317C89.2512 98.45 89.6408 98.7712 90.0586 98.9942C90.4762 99.2215 90.8977 99.3216 91.3231 99.2927C91.7484 99.269 92.153 99.0893 92.5371 98.7515C92.9058 98.4283 93.1344 98.0616 93.2226 97.6537C93.3129 97.2471 93.2773 96.82 93.1155 96.372C92.9559 95.9266 92.6845 95.4818 92.3009 95.0377Z" fill="#3D3126"/>
<path d="M81.3864 98.256C82.0109 97.8687 82.6394 97.6828 83.272 97.7004C83.9046 97.7179 84.5017 97.9121 85.0631 98.2829C85.6247 98.6536 86.1102 99.1741 86.5197 99.8444C86.9363 100.527 87.1796 101.206 87.2497 101.882C87.3186 102.563 87.219 103.19 86.9507 103.762C86.6813 104.339 86.2459 104.814 85.6446 105.188C85.1762 105.479 84.7007 105.654 84.218 105.712C83.7354 105.771 83.2779 105.717 82.8457 105.551C82.4135 105.385 82.0403 105.111 81.7261 104.726L82.7496 104.091C83.0145 104.348 83.3535 104.512 83.7666 104.581C84.1786 104.655 84.61 104.552 85.0611 104.272C85.46 104.024 85.7457 103.702 85.9182 103.305C86.0896 102.914 86.1434 102.476 86.0796 101.994C86.0147 101.515 85.8274 101.022 85.5177 100.515C85.2007 99.9962 84.8438 99.5945 84.447 99.3105C84.0471 99.0285 83.6334 98.8726 83.2056 98.8447C82.775 98.8189 82.3573 98.9314 81.9526 99.1824C81.6865 99.3477 81.4737 99.5449 81.3139 99.7721C81.154 100 81.0522 100.248 81.0088 100.517C80.9653 100.785 80.9865 101.061 81.0724 101.345L80.0491 101.981C79.8647 101.549 79.7897 101.102 79.824 100.643C79.8573 100.188 80.0034 99.7515 80.2623 99.3342C80.5203 98.9201 80.8949 98.5607 81.3864 98.256Z" fill="#3D3126"/>
<path d="M77.4191 102.66L76.2262 109.745L74.9444 110.275L71.978 102.977L73.0902 102.517L75.3844 108.162L76.5586 101.084L77.8592 100.547L80.8256 107.845L79.7134 108.304L77.4191 102.66Z" fill="#3D3126"/>
<path d="M65.451 104.635L66.9365 111.244L68.963 110.782C69.42 110.677 69.7553 110.488 69.9688 110.215C70.1824 109.942 70.2472 109.618 70.1632 109.244C70.0806 108.877 69.8981 108.615 69.6157 108.458C69.3301 108.302 68.9803 108.272 68.5663 108.366L66.1028 108.929L65.8552 107.827L68.3187 107.265C68.8353 107.146 69.3013 107.137 69.7168 107.235C70.1322 107.333 70.4792 107.529 70.7577 107.824C71.037 108.121 71.2296 108.505 71.3353 108.976C71.4419 109.45 71.4275 109.882 71.292 110.27C71.1566 110.66 70.9126 110.991 70.5598 111.265C70.2037 111.539 69.7525 111.738 69.2061 111.863L66.067 112.581L64.3384 104.889L65.451 104.635ZM70.5371 103.473L69.2313 107.793L67.9598 108.084L69.2656 103.763L70.5371 103.473Z" fill="#3D3126"/>
<path d="M52.0171 112.121C52.288 112.141 52.5663 112.094 52.8518 111.982C53.134 111.868 53.3758 111.707 53.5775 111.497C53.7756 111.292 53.8861 111.052 53.909 110.778L55.0864 110.88C55.0576 111.221 54.9488 111.542 54.7599 111.841C54.5711 112.141 54.3292 112.402 54.0345 112.624C53.7364 112.846 53.4053 113.013 53.0415 113.126C52.6741 113.24 52.301 113.28 51.9221 113.247C51.2117 113.186 50.6248 112.954 50.1614 112.55C49.6946 112.146 49.3577 111.636 49.1506 111.02C48.9401 110.405 48.8643 109.749 48.923 109.053L48.9472 108.767C49.0056 108.074 49.1902 107.441 49.5011 106.866C49.8082 106.294 50.2257 105.849 50.7535 105.531C51.278 105.211 51.8954 105.082 52.6058 105.143C53.1741 105.192 53.6693 105.362 54.0912 105.652C54.5128 105.945 54.8324 106.317 55.0502 106.765C55.268 107.212 55.3549 107.698 55.3108 108.219L54.1335 108.118C54.1586 107.822 54.0991 107.537 53.9552 107.263C53.8076 106.993 53.6069 106.766 53.3532 106.583C53.0959 106.403 52.8151 106.298 52.5108 106.268C52.0572 106.233 51.6595 106.344 51.3176 106.599C50.9757 106.855 50.7039 107.189 50.5022 107.601C50.3004 108.013 50.1813 108.436 50.1448 108.869L50.1206 109.156C50.0832 109.599 50.1295 110.039 50.2596 110.476C50.3861 110.917 50.5965 111.29 50.8909 111.597C51.1819 111.904 51.5573 112.079 52.0171 112.121ZM49.5937 109.585L49.6886 108.459L53.0987 108.751L53.0038 109.877L49.5937 109.585Z" fill="#3D3126"/>
<path d="M47.8135 104.752L45.94 112.409L44.773 112.119L45.5878 108.789L44.8164 108.597L41.2722 111.248L39.769 110.874L43.7373 107.949L41.603 103.208L43.1062 103.582L44.8078 107.432L45.8561 107.692L46.6465 104.462L47.8135 104.752Z" fill="#3D3126"/>
<path d="M37.7843 101.457C38.4608 101.743 38.9765 102.15 39.3314 102.677C39.6863 103.206 39.8779 103.808 39.9063 104.484C39.9347 105.16 39.7982 105.862 39.4967 106.588C39.19 107.327 38.7845 107.922 38.2805 108.373C37.7721 108.827 37.2089 109.111 36.5911 109.224C35.9688 109.341 35.3319 109.261 34.6805 108.987C34.1731 108.772 33.7552 108.485 33.4267 108.123C33.0981 107.762 32.8747 107.356 32.7564 106.906C32.638 106.454 32.6419 105.989 32.768 105.507L33.8768 105.975C33.8236 106.343 33.8897 106.716 34.0747 107.095C34.2554 107.475 34.59 107.768 35.0786 107.975C35.5108 108.156 35.9369 108.203 36.357 108.113C36.7727 108.025 37.1566 107.814 37.5087 107.48C37.8563 107.148 38.1442 106.707 38.3722 106.158C38.6056 105.596 38.7211 105.069 38.7188 104.579C38.7132 104.086 38.5971 103.658 38.3702 103.291C38.1402 102.922 37.8059 102.646 37.3675 102.461C37.0793 102.34 36.7968 102.28 36.52 102.282C36.2431 102.283 35.984 102.345 35.7424 102.466C35.501 102.587 35.2906 102.764 35.1117 103.001L34.0029 102.533C34.2438 102.13 34.5594 101.809 34.9498 101.569C35.3356 101.331 35.7725 101.196 36.2604 101.164C36.744 101.134 37.2519 101.233 37.7843 101.457Z" fill="#3D3126"/>
<path d="M33.8674 99.8537L29.7655 106.569L28.7421 105.934L30.526 103.013L29.8495 102.593L25.6718 104.027L24.3535 103.208L29.0184 101.643L28.4208 96.4717L29.739 97.2904L30.1942 101.48L31.1135 102.05L32.844 99.2175L33.8674 99.8537Z" fill="#3D3126"/>
<path d="M28.9293 93.0809C29.0844 93.214 29.2116 93.3458 29.3111 93.4762C29.4128 93.604 29.477 93.6995 29.5036 93.763L28.5843 94.3763C28.4103 94.1282 28.2316 93.9386 28.0477 93.8078C27.8639 93.6769 27.6478 93.6239 27.3992 93.6488C27.1503 93.669 26.8416 93.7838 26.4729 93.9933L25.906 94.3159L23.01 102.243L22.0174 101.39L24.4151 95.194L24.3531 95.1407L18.6674 98.5135L17.6748 97.6614L26.0144 92.9522C26.3901 92.7397 26.7477 92.604 27.0875 92.5449C27.4295 92.4833 27.7534 92.4984 28.0594 92.5902C28.3627 92.6799 28.6527 92.8435 28.9293 93.0809Z" fill="#3D3126"/>
<path d="M24.3204 89.0715L16.1314 96.1025L15.3786 95.2112L16.3247 94.399L16.2322 94.2895C16.0716 94.3105 15.8605 94.3299 15.599 94.3476C15.3327 94.365 15.0404 94.3146 14.7222 94.1966C14.3992 94.0783 14.0727 93.8236 13.7425 93.4327C13.3154 92.9271 13.0644 92.3739 12.9893 91.7729C12.9143 91.1719 13.0154 90.5657 13.2928 89.9544C13.5702 89.3431 14.0217 88.7688 14.6473 88.2317C15.278 87.6902 15.9161 87.3289 16.5614 87.148C17.2042 86.9692 17.8142 86.9627 18.391 87.1282C18.9654 87.2961 19.4638 87.6302 19.8865 88.1304C20.2124 88.5162 20.4099 88.8794 20.4791 89.22C20.5458 89.563 20.5505 89.8669 20.4933 90.1318C20.4335 90.399 20.378 90.6131 20.3267 90.774L20.3928 90.8522L23.5411 88.1489L24.3204 89.0715ZM18.3432 92.6389C18.793 92.2527 19.1336 91.8456 19.3651 91.4175C19.594 90.9916 19.6976 90.5677 19.6758 90.1459C19.6513 89.7263 19.4828 89.3314 19.1701 88.9613C18.8444 88.5757 18.4717 88.3403 18.0521 88.2554C17.6278 88.1702 17.1887 88.21 16.7349 88.3749C16.2762 88.5393 15.8349 88.8036 15.411 89.1676C14.9923 89.5271 14.6699 89.9162 14.4439 90.3351C14.2131 90.7535 14.1097 91.1774 14.1333 91.6067C14.1522 92.0356 14.3267 92.4454 14.657 92.8364C14.9739 93.2117 15.3346 93.446 15.739 93.5394C16.1409 93.635 16.5649 93.6037 17.011 93.4455C17.4545 93.2894 17.8986 93.0206 18.3432 92.6389Z" fill="#3D3126"/>
<path d="M15.2808 81.6053C15.6585 82.2391 15.8352 82.8748 15.8111 83.5123C15.7869 84.1499 15.5879 84.7496 15.2138 85.3117C14.8396 85.8737 14.3179 86.3574 13.6484 86.7628C12.9674 87.1752 12.2912 87.4131 11.6199 87.4763C10.9439 87.5383 10.3235 87.4308 9.75851 87.1541C9.18885 86.8761 8.72224 86.4319 8.35858 85.8217C8.07533 85.3463 7.90744 84.865 7.85468 84.3777C7.80203 83.8905 7.86031 83.4299 8.02954 82.9961C8.19877 82.5621 8.47546 82.1889 8.85961 81.8764L9.47854 82.9151C9.22009 83.1795 9.05434 83.5195 8.9812 83.9351C8.90335 84.3496 9.00087 84.7857 9.27356 85.2435C9.51491 85.6485 9.83124 85.94 10.2226 86.1183C10.6094 86.2954 11.0426 86.3544 11.5223 86.2955C11.9974 86.2353 12.4882 86.0519 12.9947 85.7452C13.5127 85.4315 13.9149 85.0761 14.2011 84.6791C14.4857 84.2791 14.6441 83.8637 14.6765 83.4328C14.7071 82.9989 14.6001 82.5766 14.3553 82.1658C14.1944 81.8958 14.0018 81.679 13.7776 81.5153C13.5534 81.3517 13.3084 81.2465 13.0429 81.1996C12.7774 81.1528 12.5032 81.1711 12.2202 81.2547L11.6013 80.2159C12.032 80.0348 12.4751 79.9642 12.9305 80.0039C13.3812 80.0424 13.8124 80.1945 14.2242 80.4602C14.6314 80.7247 14.9836 81.1065 15.2808 81.6053Z" fill="#3D3126"/>
<path d="M10.9845 77.6109L3.97082 76.3287L3.45996 75.0306L10.7312 72.1221L11.1745 73.2484L5.55057 75.4979L12.5568 76.761L13.0751 78.0784L5.804 80.9869L5.36065 79.8605L10.9845 77.6109Z" fill="#3D3126"/>
<path d="M9.14327 65.5024L2.57029 66.9245L3.00626 68.9728C3.10456 69.4347 3.28808 69.7748 3.55682 69.9932C3.82556 70.2116 4.14582 70.2806 4.51763 70.2002C4.88283 70.1213 5.14466 69.9403 5.30324 69.6574C5.4611 69.3711 5.49541 69.0189 5.40639 68.6005L4.87638 66.1104L5.97186 65.8734L6.50188 68.3636C6.61302 68.8856 6.61753 69.3555 6.5155 69.7732C6.41337 70.191 6.21474 70.5385 5.91961 70.8159C5.62111 71.094 5.23788 71.2838 4.76984 71.385C4.29841 71.487 3.87061 71.4675 3.48641 71.3265C3.10222 71.1856 2.77645 70.9357 2.50909 70.577C2.24103 70.2148 2.04823 69.7577 1.93069 69.2055L1.25537 66.0327L8.90387 64.3779L9.14327 65.5024ZM10.2374 70.6432L5.96715 69.2775L5.69363 67.9923L9.96391 69.358L10.2374 70.6432Z" fill="#3D3126"/>
<path d="M1.86863 51.8028C1.84483 52.0757 1.88672 52.3568 1.99433 52.6464C2.10227 52.9326 2.25856 53.1789 2.46317 53.3855C2.66474 53.5883 2.90065 53.7034 3.17091 53.7307L3.05266 54.9159C2.71484 54.8818 2.39869 54.7671 2.10421 54.5721C1.80972 54.3771 1.55463 54.1294 1.33892 53.8288C1.12355 53.5249 0.9626 53.1886 0.856053 52.82C0.749844 52.448 0.715773 52.0712 0.753829 51.6898C0.825188 50.9745 1.06471 50.3865 1.47241 49.9255C1.88044 49.4612 2.39129 49.1293 3.00491 48.9301C3.61887 48.7275 4.27048 48.6611 4.95959 48.731L5.24334 48.7598C5.92917 48.8293 6.55456 49.0251 7.11951 49.3474C7.68149 49.6659 8.11655 50.0936 8.42469 50.6305C8.73323 51.1641 8.85176 51.7885 8.78036 52.5038C8.7233 53.0759 8.54751 53.5724 8.253 53.9933C7.95511 54.4137 7.58233 54.7303 7.13457 54.9429C6.68681 55.1556 6.20453 55.2356 5.68762 55.1832L5.80594 53.998C6.09983 54.0277 6.38349 53.9723 6.6568 53.8314C6.92723 53.6868 7.15516 53.488 7.34078 53.2351C7.52333 52.9783 7.63161 52.6969 7.66562 52.3907C7.70772 51.934 7.60456 51.5313 7.35615 51.1827C7.10773 50.8342 6.78064 50.555 6.37509 50.3452C5.96943 50.1356 5.55209 50.009 5.12308 49.9655L4.83932 49.9367C4.40017 49.8922 3.96278 49.932 3.52724 50.0565C3.08865 50.1771 2.71489 50.3835 2.40594 50.6755C2.09733 50.9642 1.91822 51.34 1.86863 51.8028ZM4.42209 49.3989L5.53683 49.512L5.19438 52.9451L4.07953 52.8321L4.42209 49.3989Z" fill="#3D3126"/>
<path d="M9.20882 47.7607L1.63574 45.7847L1.93688 44.6116L5.2304 45.4709L5.42944 44.6954L2.84031 41.0922L3.22822 39.5811L6.08556 43.615L10.8115 41.5173L10.4236 43.0285L6.58557 44.7002L6.31513 45.7539L9.50999 46.5876L9.20882 47.7607Z" fill="#3D3126"/>
<path d="M12.5495 37.7453C12.2588 38.4242 11.8494 38.9395 11.3215 39.2913C10.7936 39.6432 10.1941 39.8296 9.52312 39.8508C8.85215 39.8718 8.15812 39.7263 7.44126 39.4142C6.71179 39.0966 6.12604 38.6813 5.68381 38.1682C5.23984 37.6505 4.96479 37.0796 4.85856 36.4555C4.75059 35.8268 4.83654 35.1856 5.1165 34.5319C5.3346 34.0229 5.6246 33.6048 5.98662 33.2776C6.34854 32.9505 6.75379 32.7298 7.20206 32.6155C7.65044 32.5013 8.11254 32.5103 8.58826 32.6428L8.11182 33.7554C7.74816 33.6977 7.37754 33.7601 6.99995 33.9425C6.62051 34.1204 6.3258 34.4544 6.1158 34.9446C5.93007 35.3783 5.87947 35.8074 5.96388 36.2319C6.04655 36.6519 6.25153 37.0413 6.57862 37.4C6.90406 37.7542 7.33789 38.0493 7.88031 38.2854C8.43512 38.5269 8.95592 38.6493 9.44281 38.6524C9.93093 38.6524 10.3581 38.5401 10.7243 38.3154C11.0918 38.0877 11.3698 37.7538 11.5582 37.3138C11.682 37.0248 11.7445 36.7406 11.7457 36.4615C11.747 36.1824 11.689 35.9204 11.572 35.6756C11.4549 35.4308 11.2804 35.2168 11.0481 35.0336L11.5246 33.9211C11.9215 34.1686 12.2367 34.4903 12.4702 34.8865C12.7019 35.2782 12.8307 35.7201 12.8565 36.2124C12.8806 36.7002 12.7782 37.2112 12.5495 37.7453Z" fill="#3D3126"/>
<path d="M14.1929 33.764L7.57764 29.5548L8.21911 28.5299L11.0961 30.3606L11.5201 29.6833L10.1436 25.4557L10.9699 24.1357L12.4718 28.8558L17.6069 28.3103L16.7807 29.6303L12.6199 30.043L12.0437 30.9635L14.8344 32.7393L14.1929 33.764Z" fill="#3D3126"/>
<path d="M20.9394 28.8706C20.8056 29.0255 20.6736 29.1524 20.5432 29.2513C20.4153 29.3524 20.3198 29.4161 20.2566 29.4423L19.6584 28.5087C19.9064 28.3361 20.0963 28.1579 20.2282 27.974C20.3599 27.7901 20.4148 27.5728 20.3928 27.3219C20.3756 27.0709 20.265 26.7582 20.0613 26.3843L19.7475 25.8093L11.9175 22.8033L12.7736 21.8119L18.893 24.2967L18.9464 24.2347L15.6629 18.466L16.5189 17.4746L21.0989 25.9334C21.3055 26.3145 21.4362 26.6766 21.4911 27.0197C21.5485 27.3651 21.5299 27.6916 21.4355 27.999C21.3433 28.3038 21.178 28.5944 20.9394 28.8706Z" fill="#3D3126"/>
<path d="M25.0199 24.1851L18.166 15.8276L19.0609 15.0816L19.8528 16.0471L19.9627 15.9555C19.9442 15.7933 19.928 15.5802 19.9142 15.3163C19.9009 15.0476 19.9551 14.7537 20.0767 14.4346C20.1988 14.1109 20.4561 13.7853 20.8486 13.4581C21.3563 13.035 21.9086 12.7899 22.5057 12.723C23.1029 12.6561 23.7025 12.7669 24.3049 13.0555C24.9071 13.344 25.47 13.8074 25.9936 14.4459C26.5216 15.0896 26.8705 15.7381 27.0406 16.3914C27.2085 17.042 27.2062 17.6568 27.0335 18.236C26.8587 18.8126 26.5201 19.3102 26.0178 19.729C25.6304 20.0519 25.2674 20.2457 24.9284 20.3106C24.5874 20.3727 24.2859 20.3732 24.024 20.3116C23.76 20.2475 23.5485 20.1884 23.3896 20.1343L23.3111 20.1998L25.9463 23.413L25.0199 24.1851ZM21.5689 18.1075C21.9454 18.5666 22.3442 18.916 22.7654 19.1556C23.1844 19.3925 23.6033 19.5031 24.0219 19.4872C24.4386 19.4686 24.8325 19.3045 25.2041 18.9948C25.5914 18.672 25.8302 18.2997 25.9204 17.8781C26.0112 17.4515 25.9781 17.0082 25.8213 16.5483C25.6648 16.0836 25.4092 15.6348 25.0543 15.2022C24.7039 14.7748 24.3226 14.4442 23.9105 14.2103C23.4989 13.9716 23.08 13.861 22.6539 13.8787C22.2282 13.8915 21.8192 14.0615 21.4267 14.3887C21.0499 14.7027 20.8122 15.063 20.7138 15.4693C20.6131 15.873 20.638 16.3009 20.7884 16.7529C20.9367 17.2023 21.1968 17.6538 21.5689 18.1075Z" fill="#3D3126"/>
<path d="M32.341 15.2736C31.7082 15.6474 31.0757 15.8185 30.4437 15.7872C29.8116 15.7558 29.2189 15.5484 28.6656 15.1651C28.1124 14.7817 27.6384 14.2504 27.2437 13.5711C26.8421 12.8799 26.6137 12.1956 26.5585 11.5181C26.5045 10.8359 26.6178 10.2116 26.8986 9.64512C27.1806 9.07389 27.6262 8.60841 28.2356 8.24849C28.7101 7.96819 29.1893 7.80418 29.6731 7.75647C30.157 7.70885 30.6131 7.77268 31.0416 7.94805C31.4701 8.12342 31.8373 8.4065 32.1429 8.79721L31.1058 9.40965C30.8466 9.14629 30.5112 8.97536 30.0998 8.89708C29.6895 8.81404 29.2559 8.90751 28.7988 9.17737C28.3946 9.41616 28.1019 9.73177 27.9207 10.1244C27.7408 10.5124 27.6775 10.9485 27.7307 11.4328C27.7851 11.9124 27.9616 12.4092 28.2602 12.9231C28.5657 13.4489 28.9137 13.8583 29.3043 14.1512C29.6977 14.4425 30.108 14.6068 30.5351 14.6442C30.965 14.6799 31.3851 14.5766 31.7952 14.3344C32.0648 14.1752 32.2818 13.9834 32.4467 13.7592C32.6115 13.5349 32.7185 13.2892 32.7679 13.022C32.8173 12.7548 32.8021 12.4782 32.7224 12.192L33.7595 11.5794C33.9344 12.0158 33.9995 12.4632 33.9552 12.9218C33.912 13.3759 33.7564 13.8089 33.4883 14.2211C33.2214 14.6286 32.839 14.9795 32.341 15.2736Z" fill="#3D3126"/>
<path d="M36.6235 10.8338L38.0003 3.78265L39.2954 3.28711L42.071 10.6607L40.9472 11.0906L38.8005 5.3876L37.4428 12.4315L36.1286 12.9344L33.353 5.5608L34.4768 5.13085L36.6235 10.8338Z" fill="#3D3126"/>
<path d="M48.4188 9.18659L47.0836 2.54391L45.0471 2.95997C44.5879 3.05379 44.2485 3.23491 44.0288 3.50333C43.809 3.77175 43.7369 4.09383 43.8124 4.46955C43.8866 4.83866 44.0631 5.10471 44.3418 5.26779C44.6238 5.43014 44.9728 5.46887 45.3889 5.38387L47.8646 4.87812L48.0871 5.98526L45.6114 6.49102C45.0923 6.59709 44.6262 6.59626 44.2131 6.48854C43.7999 6.38082 43.4575 6.17664 43.1857 5.87589C42.9133 5.57184 42.7295 5.1833 42.6345 4.71029C42.5387 4.23385 42.563 3.8028 42.7071 3.41709C42.8513 3.03139 43.1028 2.70582 43.4618 2.44041C43.824 2.17431 44.2796 1.98517 44.8286 1.87299L47.9832 1.22852L49.5368 8.95814L48.4188 9.18659ZM43.3076 10.2308L44.711 5.94147L45.9888 5.68049L44.5853 9.96975L43.3076 10.2308Z" fill="#3D3126"/>
<path d="M62.2215 1.96661C61.9512 1.93946 61.6718 1.97846 61.3834 2.0836C61.0983 2.18912 60.8522 2.34382 60.645 2.54771C60.4415 2.74859 60.3246 2.98508 60.2943 3.25722L59.1202 3.12435C59.1581 2.78417 59.2754 2.46677 59.4721 2.17215C59.669 1.87751 59.9177 1.62321 60.2182 1.40922C60.5222 1.19561 60.8575 1.03722 61.2244 0.934062C61.5946 0.83129 61.9686 0.801277 62.3465 0.844044C63.0551 0.92424 63.6356 1.1725 64.0879 1.58883C64.5438 2.00554 64.867 2.52436 65.0575 3.14527C65.2515 3.76657 65.3097 4.42417 65.2325 5.1181L65.2006 5.40387C65.1238 6.09439 64.9223 6.72264 64.5962 7.2885C64.2739 7.85137 63.8447 8.28504 63.3085 8.5895C62.7758 8.89438 62.1551 9.00665 61.4466 8.9265C60.8798 8.86236 60.3893 8.67935 59.9753 8.37768C59.5618 8.07249 59.2521 7.69294 59.0464 7.23913C58.8407 6.78533 58.7669 6.29816 58.8247 5.77764L59.9989 5.91056C59.966 6.20645 60.0177 6.49305 60.1543 6.77035C60.2946 7.04456 60.4892 7.27673 60.7379 7.46676C60.9904 7.6538 61.2683 7.76616 61.5715 7.80396C62.0241 7.85168 62.4246 7.75233 62.7732 7.5059C63.1218 7.25948 63.4024 6.93302 63.6151 6.52651C63.8277 6.12001 63.9582 5.70069 64.0063 5.26868L64.0381 4.98301C64.0873 4.54077 64.0527 4.09937 63.9344 3.65885C63.8198 3.2153 63.6194 2.83613 63.3333 2.52129C63.0505 2.20684 62.68 2.02194 62.2215 1.96661ZM64.5762 4.56855L64.4512 5.69109L61.0502 5.30617L61.1752 4.1836L64.5762 4.56855Z" fill="#3D3126"/>
<path d="M66.0669 9.3837L68.113 1.77148L69.273 2.08844L68.3832 5.3989L69.15 5.60845L72.7533 3.03928L74.2476 3.44755L70.2142 6.28224L72.2408 11.0705L70.7465 10.6622L69.1323 6.77395L68.0902 6.48921L67.227 9.70067L66.0669 9.3837Z" fill="#3D3126"/>
<path d="M76.2709 12.9866C75.6021 12.6833 75.0971 12.2631 74.756 11.7256C74.4149 11.1882 74.2389 10.5811 74.2281 9.90443C74.2172 9.22764 74.3718 8.5302 74.692 7.8122C75.0179 7.08161 75.4385 6.49726 75.9541 6.05915C76.474 5.61929 77.0443 5.35045 77.6649 5.25275C78.29 5.15329 78.9246 5.24955 79.5687 5.54142C80.0704 5.76884 80.4807 6.06741 80.7997 6.43726C81.1187 6.8071 81.3316 7.21877 81.4382 7.67247C81.545 8.12617 81.529 8.59186 81.3904 9.06952L80.2942 8.57254C80.3568 8.20683 80.3005 7.83234 80.1253 7.44887C79.9545 7.06374 79.6276 6.76165 79.1445 6.5427C78.7173 6.34895 78.2924 6.29153 77.8701 6.37033C77.4523 6.44738 77.0631 6.64815 76.7025 6.97265C76.3464 7.2954 76.0472 7.72834 75.8049 8.27159C75.5571 8.82733 75.428 9.35054 75.4177 9.84122C75.4104 10.3333 75.5154 10.7657 75.7328 11.1382C75.9531 11.5121 76.2801 11.7972 76.7137 11.9938C76.9985 12.1229 77.2794 12.1902 77.5562 12.1956C77.833 12.2009 78.0937 12.1464 78.3382 12.0321C78.5829 11.9177 78.7977 11.7449 78.9827 11.5135L80.079 12.0104C79.8277 12.407 79.5038 12.7199 79.1074 12.9493C78.7155 13.177 78.2752 13.3002 77.7867 13.3189C77.3027 13.336 76.7973 13.2251 76.2709 12.9866Z" fill="#3D3126"/>
<path d="M79.9209 14.5466L84.1685 7.92383L85.1779 8.58182L83.3306 11.4619L83.9978 11.897L88.2058 10.5557L89.5058 11.4033L84.808 12.8654L85.2924 18.0483L83.9923 17.2008L83.6289 13.0016L82.7222 12.4106L80.9302 15.2046L79.9209 14.5466Z" fill="#3D3126"/>
<path d="M84.7236 21.4023C84.5715 21.2658 84.447 21.1312 84.3504 20.9987C84.2514 20.8686 84.1894 20.7717 84.1641 20.7077L85.0966 20.1147C85.265 20.3667 85.4397 20.5602 85.6206 20.6949C85.8015 20.8298 86.0166 20.8875 86.2655 20.868C86.5148 20.8535 86.8259 20.7454 87.1991 20.5441L87.7728 20.2341L90.8397 12.373L91.8136 13.2469L89.2824 19.389L89.3433 19.4436L95.1005 16.1962L96.0744 17.0702L87.635 21.5951C87.2547 21.7992 86.8942 21.927 86.5532 21.9786C86.2101 22.0327 85.8866 22.0105 85.5827 21.9119C85.2814 21.8156 84.9949 21.6457 84.7236 21.4023Z" fill="#3D3126"/>
<path d="M89.3516 25.581L97.7152 18.7627L98.4456 19.6731L97.4796 20.4608L97.5687 20.5726C97.7306 20.5557 97.9416 20.5418 98.2038 20.5307C98.4702 20.5203 98.7611 20.5781 99.0766 20.7042C99.3962 20.8309 99.7158 21.0938 100.036 21.4931C100.45 22.0095 100.687 22.5689 100.747 23.1717C100.807 23.7744 100.691 24.3778 100.398 24.9818C100.105 25.5858 99.639 26.1483 99.0008 26.6691C98.3565 27.1943 97.7091 27.539 97.0596 27.7033C96.4123 27.8655 95.8025 27.8564 95.2299 27.6761C94.66 27.4936 94.1701 27.1468 93.7602 26.6357C93.4443 26.2417 93.256 25.8736 93.1954 25.5313C93.1374 25.1867 93.1403 24.8828 93.2042 24.6194C93.2707 24.3539 93.3316 24.1413 93.387 23.9818L93.3229 23.9019L90.1073 26.5234L89.3516 25.581ZM95.417 22.1684C94.9576 22.5429 94.6068 22.9411 94.3645 23.3631C94.1249 23.7831 94.0107 24.204 94.0219 24.6263C94.0357 25.0465 94.1942 25.4455 94.4973 25.8235C94.8133 26.2175 95.1798 26.4622 95.5972 26.5579C96.0192 26.654 96.4593 26.6255 96.9172 26.4723C97.3792 26.3197 97.8279 26.0669 98.2602 25.714C98.6884 25.3653 99.0203 24.9845 99.2569 24.5716C99.4976 24.1592 99.6124 23.7381 99.5991 23.3084C99.5909 22.8792 99.427 22.4649 99.1074 22.0656C98.8 21.6824 98.4446 21.4389 98.043 21.3351C97.6435 21.2292 97.2194 21.2496 96.7687 21.3963C96.3218 21.5409 95.8711 21.7983 95.417 22.1684Z" fill="#3D3126"/>
<path d="M98.286 33.3599C97.9254 32.7164 97.7646 32.0763 97.8056 31.4397C97.8455 30.803 98.0596 30.2085 98.4479 29.6565C98.8371 29.1044 99.3708 28.6343 100.05 28.2464C100.741 27.8518 101.424 27.6317 102.097 27.586C102.774 27.5415 103.392 27.6651 103.949 27.9564C104.511 28.2491 104.966 28.7052 105.314 29.3249C105.585 29.8074 105.74 30.2929 105.781 30.7813C105.821 31.2697 105.751 31.7287 105.57 32.158C105.39 32.5874 105.104 32.9532 104.712 33.2557L104.12 32.2013C104.385 31.9437 104.559 31.6081 104.643 31.1945C104.731 30.7822 104.645 30.3437 104.385 29.8789C104.154 29.4679 103.845 29.1682 103.458 28.9798C103.076 28.7928 102.645 28.7224 102.163 28.7689C101.687 28.8166 101.192 28.9872 100.678 29.2808C100.151 29.5809 99.7406 29.9257 99.4446 30.3151C99.1496 30.7076 98.9805 31.1187 98.9375 31.5487C98.8955 31.9815 98.9918 32.4065 99.2264 32.8235C99.38 33.0976 99.5665 33.3194 99.7867 33.4887C100.007 33.6582 100.249 33.7698 100.513 33.8235C100.777 33.8772 101.052 33.866 101.337 33.7899L101.93 34.8444C101.494 35.0142 101.049 35.0732 100.595 35.0218C100.145 34.9716 99.7181 34.8083 99.3135 34.532C98.9129 34.2569 98.5708 33.8662 98.286 33.3599Z" fill="#3D3126"/>
<path d="M102.495 37.4721L109.474 38.9394L109.95 40.2507L102.606 42.9658L102.192 41.8282L107.872 39.7281L100.901 38.2801L100.418 36.9496L107.762 34.2344L108.176 35.3721L102.495 37.4721Z" fill="#3D3126"/>
<path d="M104.055 49.7234L110.664 48.479L110.282 46.4198C110.196 45.9554 110.022 45.6104 109.759 45.3848C109.496 45.1592 109.177 45.0816 108.804 45.152C108.437 45.2211 108.17 45.3949 108.004 45.6735C107.839 45.9553 107.794 46.3066 107.873 46.7271L108.336 49.2306L107.235 49.438L106.771 46.9346C106.674 46.4096 106.682 45.9398 106.796 45.525C106.908 45.1102 107.116 44.7681 107.419 44.4988C107.725 44.2287 108.112 44.0494 108.583 43.9608C109.057 43.8716 109.484 43.9026 109.865 44.0539C110.245 44.2051 110.563 44.4637 110.822 44.8295C111.08 45.1987 111.261 45.6609 111.363 46.2161L111.955 49.4061L104.264 50.854L104.055 49.7234ZM103.098 44.555L107.33 46.0354L107.57 47.3275L103.337 45.8471L103.098 44.555Z" fill="#3D3126"/>
</svg>
