<svg width="32" height="32" viewBox="0 0 32 32" fill="none" xmlns="http://www.w3.org/2000/svg">
<path d="M14.5098 2.9985C15.3048 2.1105 16.6951 2.1105 17.49 2.99851L18.3796 3.99216C18.7847 4.44473 19.3736 4.68864 19.9801 4.65512L21.3117 4.5815C22.5018 4.51571 23.4849 5.4988 23.4191 6.68885L23.3455 8.02047C23.3119 8.62697 23.5558 9.21584 24.0084 9.62099L25.0021 10.5105C25.8901 11.3055 25.8901 12.6958 25.0021 13.4908L24.0084 14.3803C23.5558 14.7855 23.3119 15.3743 23.3455 15.9808L23.4191 17.3125C23.4849 18.5025 22.5018 19.4856 21.3117 19.4198L19.9801 19.3462C19.3736 19.3127 18.7847 19.5566 18.3796 20.0091L17.49 21.0028C16.6951 21.8908 15.3048 21.8908 14.5098 21.0028L13.6203 20.0091C13.2151 19.5566 12.6262 19.3127 12.0197 19.3462L10.6881 19.4198C9.49807 19.4856 8.51498 18.5025 8.58077 17.3125L8.65438 15.9808C8.68791 15.3743 8.44399 14.7855 7.99143 14.3803L6.99777 13.4908C6.10976 12.6958 6.10976 11.3055 6.99777 10.5105L7.99143 9.62099C8.44399 9.21584 8.68791 8.62697 8.65438 8.02047L8.58077 6.68885C8.51498 5.4988 9.49807 4.51571 10.6881 4.5815L12.0197 4.65512C12.6262 4.68864 13.2151 4.44473 13.6203 3.99216L14.5098 2.9985Z" stroke="black" stroke-width="2"/>
<path d="M20 10.666L15.2 14.666L12 11.9993" stroke="black" stroke-width="2" stroke-linecap="round" stroke-linejoin="round"/>
<path d="M10.6671 20.0102L10.6667 28L16.0001 24.6667L21.3334 28L21.3337 20" stroke="black" stroke-width="2" stroke-linecap="round" stroke-linejoin="round"/>
</svg>
