<svg width="34" height="35" viewBox="0 0 34 35" fill="none" xmlns="http://www.w3.org/2000/svg">
<path d="M24.0835 2.85449H9.91683C6.00481 2.85449 2.8335 6.02581 2.8335 9.93783V24.1045C2.8335 28.0165 6.00481 31.1878 9.91683 31.1878H24.0835C27.9955 31.1878 31.1668 28.0165 31.1668 24.1045V9.93783C31.1668 6.02581 27.9955 2.85449 24.0835 2.85449Z" stroke="#3D3126" stroke-width="2" stroke-linecap="round" stroke-linejoin="round"/>
<path d="M22.6666 16.1294C22.8414 17.3084 22.64 18.5126 22.0911 19.5705C21.5421 20.6285 20.6735 21.4864 19.6089 22.0223C18.5442 22.5582 17.3377 22.7447 16.1609 22.5553C14.9842 22.366 13.8971 21.8104 13.0543 20.9676C12.2115 20.1247 11.6559 19.0377 11.4665 17.8609C11.2771 16.6841 11.4637 15.4776 11.9995 14.4129C12.5354 13.3483 13.3933 12.4797 14.4513 11.9308C15.5093 11.3818 16.7134 11.1804 17.8924 11.3552C19.0951 11.5336 20.2084 12.094 21.0681 12.9537C21.9278 13.8134 22.4882 14.9268 22.6666 16.1294Z" stroke="#3D3126" stroke-width="2" stroke-linecap="round" stroke-linejoin="round"/>
<path d="M25.4925 9.12592C25.5144 9.27329 25.4892 9.42381 25.4206 9.55605C25.3519 9.6883 25.2434 9.79554 25.1103 9.86253C24.9772 9.92951 24.8264 9.95282 24.6793 9.92915C24.5322 9.90548 24.3963 9.83604 24.291 9.73068C24.1856 9.62533 24.1162 9.48945 24.0925 9.34235C24.0688 9.19525 24.0921 9.04444 24.1591 8.91136C24.2261 8.77828 24.3333 8.6697 24.4656 8.60109C24.5978 8.53247 24.7484 8.50729 24.8957 8.52915C25.0461 8.55144 25.1852 8.62149 25.2927 8.72895C25.4002 8.83641 25.4702 8.97559 25.4925 9.12592Z" stroke="#3D3126" stroke-width="2" stroke-linecap="round" stroke-linejoin="round"/>
</svg>
