<svg width="28" height="28" viewBox="0 0 28 28" fill="none" xmlns="http://www.w3.org/2000/svg">
<path d="M14.0003 12.8332C15.289 12.8332 16.3337 11.7885 16.3337 10.4998C16.3337 9.21117 15.289 8.1665 14.0003 8.1665C12.7117 8.1665 11.667 9.21117 11.667 10.4998C11.667 11.7885 12.7117 12.8332 14.0003 12.8332Z" stroke="#FFFEFD" stroke-linecap="round" stroke-linejoin="round"/>
<path d="M13.9997 24.5C13.9997 24.5 22.1663 18.8462 22.1663 11.5769C22.1663 9.43479 21.3059 7.38039 19.7744 5.86568C18.2428 4.35096 16.1656 3.5 13.9997 3.5C11.8337 3.5 9.75652 4.35096 8.22497 5.86568C6.69342 7.38039 5.83301 9.43479 5.83301 11.5769C5.83301 18.8462 13.9997 24.5 13.9997 24.5Z" stroke="#FFFEFD" stroke-linecap="round" stroke-linejoin="round"/>
</svg>
