<svg width="48" height="48" viewBox="0 0 48 48" fill="none" xmlns="http://www.w3.org/2000/svg">
<path d="M34 40C34 38.8954 34.8954 38 36 38C37.1046 38 38 38.8954 38 40C38 41.1046 37.1046 42 36 42C34.8954 42 34 41.1046 34 40Z" stroke="#3D3126" stroke-width="3" stroke-linecap="round" stroke-linejoin="round"/>
<path d="M14 40C14 38.8954 14.8954 38 16 38C17.1046 38 18 38.8954 18 40C18 41.1046 17.1046 42 16 42C14.8954 42 14 41.1046 14 40Z" stroke="#3D3126" stroke-width="3" stroke-linecap="round" stroke-linejoin="round"/>
<path d="M6 6H7.53543C8.49996 6 9.32709 6.6884 9.5022 7.63691L14 32" stroke="#3D3126" stroke-width="3" stroke-linecap="round" stroke-linejoin="round"/>
<path d="M11 12H39.4859C40.7721 12 41.7239 13.1965 41.4347 14.4497L37.7424 30.4497C37.533 31.3572 36.7249 32 35.7936 32H14" stroke="#3D3126" stroke-width="3" stroke-linecap="round" stroke-linejoin="round"/>
</svg>
