<svg width="32" height="32" viewBox="0 0 32 32" fill="none" xmlns="http://www.w3.org/2000/svg">
<path d="M10.1946 4H6.52632C5.13107 4 4 5.13107 4 6.52632C4 18.3859 13.6141 28 25.4737 28C26.8689 28 28 26.8689 28 25.4737V21.8054C28 20.715 27.3361 19.7345 26.3237 19.3295L22.8095 17.9238C21.9001 17.56 20.8644 17.7241 20.112 18.3511L19.2041 19.1077C18.1446 19.9906 16.5866 19.9199 15.6114 18.9447L13.0553 16.3886C12.0801 15.4134 12.0094 13.8554 12.8923 12.7959L13.6489 11.888C14.2759 11.1356 14.44 10.0999 14.0762 9.19051L12.6705 5.67629C12.2655 4.66387 11.285 4 10.1946 4Z" stroke="white" stroke-width="2" stroke-linecap="round" stroke-linejoin="round"/>
</svg>
