<svg width="197" height="95" viewBox="0 0 197 95" fill="none" xmlns="http://www.w3.org/2000/svg">
<g clip-path="url(#clip0_438_9640)">
<path d="M49.8486 34.8994V0H37.9629V41.4227H43.3198C46.9248 41.4227 49.8486 38.5012 49.8486 34.8994Z" fill="#3D3126"/>
<path d="M187.354 30.8303C186.341 32.9023 185.007 34.4424 181.758 34.4424C178.24 34.4424 176.055 32.253 175.79 27.8742H196.575V26.5136C196.575 16.9271 191.083 11.0703 180.424 11.0703C168.963 11.0703 162.836 17.2241 162.836 26.6345C162.836 36.0448 168.912 42.1987 181.012 42.1987C190.817 42.1987 195.507 37.1706 197 32.7918L187.354 30.8372V30.8303ZM180.96 17.4555C183.518 17.4555 185.17 19.1718 185.384 23.0775H175.949C176.27 19.2892 178.188 17.4555 180.96 17.4555Z" fill="#3D3126"/>
<path d="M84.7069 63.7344C81.5617 64.8565 77.2449 68.8245 74.4214 73.0858H74.3142C74.7394 70.482 75.0607 67.8198 75.0607 65.4505V64.4457H63.2305V94.0341H75.1159V83.85C75.1159 79.6093 78.3854 76.9504 82.0976 75.1925C83.518 74.5192 84.8313 74.1152 86.2551 73.7352C86.2551 73.7352 85.4466 72.257 84.921 68.8591C84.3855 65.3919 84.7103 63.7378 84.7103 63.7378L84.7069 63.7344Z" fill="#3D3126"/>
<path d="M106.567 87.052C103.049 87.052 100.864 84.8624 100.598 80.4837H121.383V79.1233C121.383 69.5366 115.892 63.6797 105.233 63.6797C93.7724 63.6797 87.6445 69.8338 87.6445 79.2441C87.6445 88.6544 93.7203 94.8082 105.82 94.8082C115.625 94.8082 120.315 89.78 121.808 85.4013L112.162 83.4465C111.15 85.5187 109.816 87.0588 106.567 87.0588V87.052ZM105.769 70.0686C108.326 70.0686 109.978 71.7847 110.192 75.6904H100.757C101.079 71.9021 102.997 70.0686 105.769 70.0686Z" fill="#3D3126"/>
<path d="M157.925 82.0781L152.381 64.4453H143.375L138.204 82.0781L133.566 64.4453H120.989L130.901 94.0298H142.096L146.464 78.5866L151.21 94.0298H162.829L172.634 64.4453H162.293L157.925 82.0781Z" fill="#3D3126"/>
<path d="M85.4212 21.7747C85.4212 15.3239 81.6919 11.0625 71.0851 11.0625C60.4779 11.0625 57.1742 14.7299 55.47 19.2883L65.811 20.9459C66.7165 18.9914 67.9951 17.9277 70.2865 17.9277C72.5782 17.9277 73.5389 19.1122 73.5389 21.2429V23.4323L66.9306 23.9054C56.431 24.6755 53.0752 28.4017 53.0752 33.668C53.0752 38.9343 56.431 42.1286 62.8799 42.1286C69.3292 42.1286 72.6851 38.6375 74.0709 36.5067C73.9119 37.5116 73.8568 38.3403 73.8568 39.1106C73.8568 39.9979 73.964 40.7682 74.1782 41.4206H86.3302C85.7977 40.357 85.4246 39.29 85.4246 37.5737V21.7747H85.4212ZM69.4155 34.5348C67.7118 34.5348 66.3259 33.264 66.3259 31.6927C66.3259 30.1214 67.7083 28.8506 69.4155 28.8506C71.1231 28.8506 72.5056 30.1214 72.5056 31.6927C72.5056 33.264 71.1231 34.5348 69.4155 34.5348Z" fill="#3D3126"/>
<path d="M35.5429 26.4549C35.5429 16.6302 28.8346 11.0703 21.5318 11.0703C15.9363 11.0703 12.7359 14.3855 11.4571 16.8685C11.6714 14.7964 11.7785 13.3184 11.7785 11.8404H0V53.2632H5.35703C8.96179 53.2632 11.8857 50.3418 11.8857 46.7398V46.6949C11.8857 43.4418 11.7267 40.3649 11.5642 37.8785C12.7359 39.7744 15.9328 42.1988 20.9995 42.1988C28.7793 42.1988 35.5429 36.5766 35.5429 26.4584V26.4549ZM20.0525 32.3221C17.3049 32.3221 15.0791 29.9048 15.0791 26.9246C15.0791 23.9443 17.3049 21.527 20.0525 21.527C22.8002 21.527 25.0259 23.9443 25.0259 26.9246C25.0259 29.9048 22.8002 32.3221 20.0525 32.3221Z" fill="#3D3126"/>
<path d="M45.7771 63.6738C40.3405 63.6738 37.0881 66.6337 35.7575 69.1785C36.0236 66.5748 36.1308 64.1507 36.1308 61.1909V59.1328C36.1308 55.5312 33.2069 52.6094 29.6021 52.6094H24.2451V94.0324H35.9718C35.9718 92.9099 35.92 91.722 35.8128 89.9505C36.8773 91.784 39.9188 94.8023 45.407 94.8023C52.9759 94.8023 59.7914 89.1802 59.7914 79.0034C59.7914 68.8263 53.0832 63.6776 45.7805 63.6776L45.7771 63.6738ZM44.2942 84.2801C41.5465 84.2801 39.3209 81.8625 39.3209 78.8826C39.3209 75.9022 41.5465 73.4851 44.2942 73.4851C47.042 73.4851 49.2675 75.9022 49.2675 78.8826C49.2675 81.8625 47.042 84.2801 44.2942 84.2801Z" fill="#3D3126"/>
<path d="M127.864 33.1395C127.864 38.8203 131.116 42.1943 136.818 42.1943C142.521 42.1943 146.571 38.7617 148.331 36.8692C148.117 38.7028 148.009 40.0636 148.009 41.424H159.788V11.8359H147.902V32.4281C146.782 33.257 144.916 34.3827 142.946 34.3827C140.976 34.3827 139.801 33.1395 139.801 30.8914V11.8359H127.784C127.307 13.6869 126.353 16.5566 125.631 18.1072H127.86V33.1395H127.864Z" fill="#3D3126"/>
<path d="M103.315 59.3609H107.258C120.208 59.3609 124.525 54.5091 124.525 48.5313C124.525 43.2649 121.114 39.5941 112.798 39.5941L98.832 39.6526C98.6282 39.3452 98.4346 38.2333 98.5418 37.3873C98.7457 36.6344 99.2089 36.4721 99.9174 36.4721C100.626 36.4721 104.324 36.9729 105.72 36.9729C114.803 36.9729 121.656 31.0297 121.656 24.1196C121.656 22.165 121.172 20.0688 120.329 18.8118C122.704 17.6273 124.383 14.5469 124.383 11.7601H114.036C114.036 12.0432 113.966 12.5267 113.828 12.8099C111.799 11.8291 108.654 11.0625 105.717 11.0625C96.2779 11.0625 89.7803 17.1369 89.7803 24.2612C89.7803 28.3775 92.0199 31.3854 94.4634 33.2709C95.542 33.8959 95.3415 34.7316 94.6087 35.1184C92.2067 36.5827 90.6755 38.8272 90.6755 41.9041C90.6755 44.981 92.3793 47.2294 93.9279 48.3516C90.0362 48.8836 87.959 50.4822 87.959 53.3242C87.959 56.46 90.4093 59.3609 103.308 59.3609H103.315ZM105.73 20.5523C107.832 20.5523 109.577 22.2306 109.577 24.2577C109.577 26.2848 107.828 27.8181 105.73 27.8181C103.494 27.8181 101.676 26.2088 101.676 24.2577C101.676 22.3065 103.494 20.5557 105.73 20.5523ZM106.245 48.7555C110.887 48.7555 114.648 49.8263 114.648 51.1453C114.648 52.4647 110.884 53.5351 106.245 53.5351C101.608 53.5351 97.8436 52.4647 97.8436 51.1453C97.8436 49.8263 101.608 48.7555 106.245 48.7555Z" fill="#3D3126"/>
</g>
<defs>
<clipPath id="clip0_438_9640">
<rect width="197" height="95" fill="white"/>
</clipPath>
</defs>
</svg>
