<svg width="32" height="32" viewBox="0 0 32 32" fill="none" xmlns="http://www.w3.org/2000/svg">
<path opacity="0.7" d="M16 0C24.8366 0 32 7.16344 32 16C32 24.8366 24.8366 32 16 32C7.16344 32 0 24.8366 0 16C0 7.16344 7.16344 0 16 0ZM14.5459 8.69629C13.9938 8.69629 13.5461 9.14421 13.5459 9.69629C13.5459 10.2486 13.9936 10.6963 14.5459 10.6963H19.8887L8.02051 22.5645C7.63001 22.9549 7.63007 23.589 8.02051 23.9795C8.38657 24.3453 8.9657 24.368 9.3584 24.0479L9.43457 23.9795L21.3037 12.1104V17.4541C21.3038 18.0063 21.7515 18.4541 22.3037 18.4541C22.8556 18.4537 23.3036 18.0061 23.3037 17.4541V9.69629C23.3037 9.56697 23.2782 9.44354 23.2334 9.33008C23.2163 9.28654 23.1953 9.24439 23.1719 9.20312C23.1633 9.18801 23.1549 9.17282 23.1455 9.1582C23.1352 9.14213 23.1236 9.12692 23.1123 9.11133C23.1063 9.10299 23.101 9.09408 23.0947 9.08594C23.081 9.06813 23.0659 9.05123 23.0508 9.03418C23.0456 9.02831 23.0405 9.02235 23.0352 9.0166C23.0269 9.00772 23.0194 8.9979 23.0107 8.98926C23.0036 8.98207 22.9956 8.97567 22.9883 8.96875C22.9797 8.96068 22.9708 8.95308 22.9619 8.94531C22.949 8.93397 22.9362 8.92267 22.9229 8.91211C22.9123 8.90375 22.9015 8.89563 22.8906 8.8877C22.8768 8.87761 22.8629 8.86768 22.8486 8.8584C22.8312 8.847 22.8131 8.83648 22.7949 8.82617C22.7897 8.82323 22.7845 8.82023 22.7793 8.81738C22.7605 8.80719 22.7412 8.79807 22.7217 8.78906C22.7115 8.78437 22.7017 8.77875 22.6914 8.77441C22.6716 8.76607 22.6513 8.75904 22.6309 8.75195C22.624 8.7496 22.6172 8.74732 22.6104 8.74512C22.6028 8.74269 22.5955 8.73956 22.5879 8.7373L22.5293 8.72266C22.5251 8.72168 22.5208 8.72065 22.5166 8.71973C22.4989 8.71587 22.4809 8.71286 22.4629 8.70996C22.4522 8.70823 22.4414 8.70645 22.4307 8.70508C22.4222 8.704 22.4138 8.70204 22.4053 8.70117L22.3574 8.69824C22.3522 8.69796 22.347 8.69746 22.3418 8.69727L22.3037 8.69629H14.5459Z" fill="#3D3126"/>
</svg>
