<svg width="33" height="33" viewBox="0 0 33 33" fill="none" xmlns="http://www.w3.org/2000/svg">
<path d="M16.5 0C25.6127 0 33 7.3873 33 16.5C33 25.6127 25.6127 33 16.5 33C7.3873 33 0 25.6127 0 16.5C0 7.3873 7.3873 0 16.5 0ZM15 9C14.4477 9 14 9.44771 14 10C14 10.5523 14.4477 11 15 11H20.5859L8.29297 23.293C7.90244 23.6835 7.90244 24.3165 8.29297 24.707C8.68349 25.0976 9.31651 25.0976 9.70703 24.707L22 12.4141V18C22 18.5523 22.4477 19 23 19C23.5523 19 24 18.5523 24 18V10C24 9.90302 23.9857 9.80939 23.96 9.7207C23.9483 9.68058 23.9338 9.64124 23.917 9.60254C23.9077 9.58109 23.8984 9.5597 23.8877 9.53906C23.8839 9.53169 23.879 9.52487 23.875 9.51758C23.8313 9.43844 23.7775 9.36595 23.7148 9.30176C23.7121 9.29896 23.7098 9.29574 23.707 9.29297C23.7039 9.28987 23.7004 9.28723 23.6973 9.28418C23.6344 9.22288 23.5636 9.1701 23.4863 9.12695C23.4769 9.12169 23.4676 9.11626 23.458 9.11133C23.3495 9.05524 23.2297 9.01783 23.1025 9.00488L23 9H15Z" fill="white"/>
</svg>
