<svg width="32" height="32" viewBox="0 0 32 32" fill="none" xmlns="http://www.w3.org/2000/svg">
<path fill-rule="evenodd" clip-rule="evenodd" d="M4.53366 4.53335C2.66699 6.4178 2.66699 9.43113 2.66699 15.4667V16.5334C2.66699 22.56 2.66699 25.5734 4.53366 27.4667C6.4181 29.3334 9.43144 29.3334 15.467 29.3334H16.5337C22.5603 29.3334 25.5737 29.3334 27.467 27.4667C29.3337 25.5822 29.3337 22.5689 29.3337 16.5334V15.4667C29.3337 9.44002 29.3337 6.42669 27.467 4.53335C25.5825 2.66669 22.5692 2.66669 16.5337 2.66669H15.467C9.44033 2.66669 6.42699 2.66669 4.53366 4.53335ZM7.16477 10.7822C7.30699 17.7156 10.7737 21.8756 16.8537 21.8756H17.2092V17.9111C19.4403 18.1334 21.1292 19.7689 21.8048 21.8756H24.9603C24.6367 20.6785 24.0629 19.5636 23.2769 18.6045C22.4909 17.6453 21.5105 16.8637 20.4003 16.3111C21.3951 15.7053 22.2543 14.9009 22.9242 13.9481C23.5941 12.9952 24.0603 11.9145 24.2937 10.7734H21.4314C20.8092 12.9778 18.9603 14.9778 17.2092 15.1645V10.7822H14.3381V18.4622C12.5603 18.0178 10.3203 15.8667 10.2225 10.7822H7.16477Z" fill="white"/>
</svg>
