<svg width="34" height="35" viewBox="0 0 34 35" fill="none" xmlns="http://www.w3.org/2000/svg">
<path fill-rule="evenodd" clip-rule="evenodd" d="M4.81683 4.83783C2.8335 6.84005 2.8335 10.0417 2.8335 16.4545V17.5878C2.8335 23.9912 2.8335 27.1928 4.81683 29.2045C6.81905 31.1878 10.0207 31.1878 16.4335 31.1878H17.5668C23.9702 31.1878 27.1718 31.1878 29.1835 29.2045C31.1668 27.2023 31.1668 24.0006 31.1668 17.5878V16.4545C31.1668 10.0512 31.1668 6.84949 29.1835 4.83783C27.1813 2.85449 23.9796 2.85449 17.5668 2.85449H16.4335C10.0302 2.85449 6.8285 2.85449 4.81683 4.83783ZM7.61238 11.4773C7.76349 18.8439 11.4468 23.2639 17.9068 23.2639H18.2846V19.0517C20.6552 19.2878 22.4496 21.0256 23.1674 23.2639H26.5202C26.1763 21.992 25.5667 20.8075 24.7315 19.7884C23.8964 18.7693 22.8547 17.9388 21.6752 17.3517C22.7321 16.708 23.645 15.8533 24.3568 14.8409C25.0685 13.8286 25.5639 12.6803 25.8118 11.4678H22.7707C22.1096 13.8101 20.1452 15.9351 18.2846 16.1334V11.4773H15.234V19.6373C13.3452 19.1651 10.9652 16.8795 10.8613 11.4773H7.61238Z" fill="#3D3126"/>
</svg>
