<?xml version="1.0" encoding="UTF-8"?> <svg xmlns="http://www.w3.org/2000/svg" width="328" height="80" viewBox="0 0 328 80" fill="none"> <path d="M166.981 23.7932H156.097L148.395 37.3592H144.43L144.304 8H134V61.0237H144.304L144.43 46.4707H148.369L158.597 61.0237H170.012L156.678 41.7378L166.981 23.7932Z" fill="#0A2540"></path> <path d="M244.965 41.257C242.871 39.8994 240.603 38.8349 238.222 38.0933L235.949 37.2328L235.334 37.0015C233.922 36.471 232.439 35.9135 232.388 34.474C232.375 34.0467 232.47 33.623 232.664 33.2423C232.859 32.8617 233.146 32.5366 233.5 32.2974C234.246 31.782 235.12 31.4841 236.025 31.4369C237.998 31.3004 239.954 31.8848 241.53 33.082L241.808 33.2592L247.313 26.9065L247.036 26.6787C246.35 26.0663 245.606 25.5237 244.813 25.0589C243.393 24.2447 241.849 23.6717 240.242 23.3631C237.928 22.8697 235.536 22.8697 233.222 23.3631C230.984 23.6599 228.862 24.5318 227.06 25.8941C225.908 26.7976 224.944 27.9198 224.225 29.1966C223.506 30.4734 223.045 31.8796 222.868 33.3351C222.552 35.9617 223.218 38.6124 224.736 40.7762C226.754 43.0153 229.392 44.6013 232.313 45.3319L232.767 45.4838L233.803 45.8381C237.54 47.1036 238.601 47.6098 239.207 48.3691C239.489 48.751 239.647 49.2102 239.661 49.6851C239.661 51.4821 237.464 52.2161 235.974 52.6717C234.933 52.8678 233.862 52.8477 232.828 52.6126C231.794 52.3775 230.819 51.9325 229.964 51.305C228.58 50.3772 227.395 49.181 226.479 47.7869C226.326 47.9465 225.82 48.4536 225.158 49.1165C223.3 50.9771 220.217 54.065 220.292 54.1397L220.469 54.3927C223.219 57.8434 227.072 60.2388 231.378 61.1757C232.362 61.3664 233.358 61.4933 234.358 61.5554H235.394C238.795 61.6268 242.128 60.5875 244.889 58.5942C246.756 57.2704 248.189 55.4204 249.005 53.2791C249.502 51.8416 249.678 50.3124 249.521 48.7994C249.364 47.2863 248.877 45.8262 248.096 44.522C247.298 43.2214 246.23 42.1079 244.965 41.257Z" fill="#0A2540"></path> <path d="M271.533 38.0931C273.906 38.8347 276.166 39.8992 278.25 41.2568C279.493 42.1076 280.543 43.2115 281.331 44.4964C282.112 45.8007 282.599 47.2608 282.756 48.7738C282.913 50.2869 282.737 51.816 282.24 53.2535C281.424 55.3949 279.991 57.2448 278.124 58.5686C275.363 60.5619 272.031 61.6012 268.629 61.5298H267.593C266.593 61.4692 265.597 61.3424 264.613 61.1501C260.307 60.2132 256.454 57.8178 253.704 54.3672L253.502 54.1141C253.452 54.0477 255.888 51.5992 257.728 49.7492C258.695 48.7775 259.498 47.9705 259.689 47.7613C260.618 49.1443 261.801 50.3381 263.174 51.2794C264.034 51.9076 265.013 52.3529 266.051 52.5879C267.089 52.823 268.164 52.8428 269.21 52.6461C270.699 52.1905 272.871 51.4565 272.871 49.6596C272.885 49.1842 272.733 48.719 272.442 48.3435C271.836 47.5842 270.775 47.078 267.012 45.8125L265.977 45.4582L265.548 45.3063C262.627 44.5757 259.989 42.9897 257.972 40.7506C256.439 38.5931 255.772 35.937 256.103 33.3095C256.288 31.8543 256.758 30.4501 257.486 29.1774C258.214 27.9048 259.186 26.7889 260.345 25.8938C262.152 24.5395 264.272 23.6684 266.507 23.3628C268.83 22.8688 271.23 22.8688 273.553 23.3628C275.152 23.6723 276.688 24.2454 278.099 25.0586C278.903 25.517 279.657 26.06 280.346 26.6784L280.599 26.9062L275.094 33.2589L274.841 33.0817C273.263 31.8887 271.308 31.3047 269.336 31.4366C268.431 31.4839 267.557 31.7817 266.81 32.2971C266.465 32.5459 266.182 32.8723 265.984 33.2503C265.787 33.6283 265.681 34.0472 265.674 34.4738C265.75 35.9164 267.214 36.4732 268.654 37.0047L269.235 37.2325L271.533 38.0931Z" fill="#0A2540"></path> <path fill-rule="evenodd" clip-rule="evenodd" d="M200.821 23.7931V27.4377H200.366C197.546 24.6075 193.725 23.0068 189.734 22.9832C187.288 22.9347 184.858 23.4032 182.604 24.3582C180.35 25.3133 178.323 26.7333 176.653 28.526C173.285 32.3057 171.479 37.2285 171.602 42.2944C171.471 47.4454 173.274 52.4579 176.653 56.3413C178.283 58.1351 180.279 59.5563 182.506 60.5084C184.732 61.4604 187.137 61.921 189.557 61.8588C193.553 61.7836 197.396 60.3057 200.416 57.6827H200.821V60.9477H211.528V23.7931H200.821ZM201.351 42.4969C201.458 45.4911 200.46 48.4198 198.548 50.7226C197.631 51.7514 196.5 52.5658 195.234 53.1081C193.969 53.6504 192.6 53.9074 191.224 53.861C189.89 53.8834 188.568 53.6038 187.357 53.0428C186.146 52.4819 185.076 51.6542 184.229 50.6213C182.339 48.2709 181.369 45.3102 181.501 42.2944C181.416 39.3693 182.404 36.5144 184.279 34.2713C185.143 33.2541 186.22 32.4407 187.433 31.8894C188.647 31.338 189.967 31.0624 191.3 31.0823C192.666 31.0396 194.025 31.3013 195.278 31.8483C196.532 32.3954 197.648 33.2143 198.548 34.246C200.46 36.5589 201.457 39.4952 201.351 42.4969Z" fill="#0A2540"></path> <path fill-rule="evenodd" clip-rule="evenodd" d="M317.292 27.438V23.7934H328V60.948H317.292V57.683H316.888C313.868 60.3061 310.025 61.7839 306.029 61.8591C303.609 61.9213 301.204 61.4607 298.977 60.5087C296.751 59.5566 294.755 58.1354 293.125 56.3416C289.746 52.4583 287.943 47.4457 288.074 42.2948C287.951 37.2289 289.757 32.3061 293.125 28.5263C294.801 26.7355 296.834 25.3169 299.092 24.3622C301.349 23.4075 303.781 22.9378 306.231 22.9835C310.214 23.0137 314.024 24.6139 316.838 27.438H317.292ZM315.02 50.7229C316.943 48.4261 317.942 45.4932 317.823 42.4973C317.941 39.4938 316.942 36.5532 315.02 34.2463C314.12 33.2146 313.004 32.3957 311.75 31.8487C310.497 31.3016 309.138 31.04 307.772 31.0826C306.439 31.0628 305.119 31.3384 303.905 31.8897C302.692 32.441 301.615 33.2544 300.751 34.2716C298.876 36.5147 297.888 39.3697 297.973 42.2948C297.841 45.3106 298.811 48.2712 300.701 50.6217C301.548 51.6545 302.617 52.4822 303.829 53.0432C305.04 53.6041 306.362 53.8838 307.696 53.8613C309.072 53.9078 310.441 53.6508 311.706 53.1085C312.972 52.5661 314.103 51.7517 315.02 50.7229Z" fill="#0A2540"></path> <path fill-rule="evenodd" clip-rule="evenodd" d="M72 80C94.0914 80 112 62.0914 112 40C112 17.9086 94.0914 0 72 0C54.283 0 39.2564 11.5184 34 27.4753V12H0L19 72H34V52.5247C39.2564 68.4816 54.283 80 72 80ZM72 55C80.2843 55 87 48.2843 87 40C87 31.7157 80.2843 25 72 25C63.7157 25 57 31.7157 57 40C57 48.2843 63.7157 55 72 55Z" fill="#0070F0"></path> </svg> 